<svg xmlns="http://www.w3.org/2000/svg" width="71" height="47">
    <path fill="#005AFF" fill-rule="evenodd" d="M.824 0h62.379C67.509 0 71 3.507 71 7.833v31.334C71 43.493 67.509 47 63.203 47H.824"/>
    <path fill="#FFF" fill-rule="evenodd" d="M40.055 26.841l-1.956 1.207m4.299 7.027s-.607.375-.066.041l-4.57-7.631c-3.64 1.552-7.944.24-10.039-3.257-2.307-3.853-1.069-8.91 2.76-11.273a8.033 8.033 0 0 1 11.13 2.703c2.12 3.54 1.241 8.09-1.884 10.639l4.559 7.612c.54-.333-.082.051-.082.051M31.637 14.883c-2.773 1.711-3.669 5.373-1.998 8.163a5.816 5.816 0 0 0 8.06 1.957c2.773-1.711 3.669-5.373 1.998-8.163a5.817 5.817 0 0 0-8.06-1.957z"/>
</svg>
